<svg version="1.1" id="Layer_1" xmlns="http://www.w3.org/2000/svg" xmlns:xlink="http://www.w3.org/1999/xlink" x="0px" y="0px"
	 width="100%" viewBox="0 0 460 178" enable-background="new 0 0 460 178" xml:space="preserve">
<path fill="#222522" opacity="1.000000" stroke="none" 
	d="
M285.000000,179.000000 
	C190.000031,179.000000 95.500069,179.000000 1.000076,179.000000 
	C1.000051,119.666725 1.000051,60.333443 1.000025,1.000124 
	C154.333221,1.000082 307.666443,1.000082 460.999756,1.000041 
	C460.999817,60.333202 460.999817,119.666405 460.999908,178.999802 
	C402.500000,179.000000 344.000000,179.000000 285.000000,179.000000 
M238.966736,106.499969 
	C238.965500,113.165733 238.917542,119.831947 238.980850,126.497101 
	C239.017731,130.381104 237.642548,133.269547 233.899048,134.821518 
	C233.183853,135.118027 232.604126,135.741318 231.583954,136.491882 
	C243.838898,136.491882 255.403976,136.491882 266.969055,136.491882 
	C260.342224,134.039246 260.034332,128.885208 260.086487,123.216263 
	C260.213715,109.386971 260.252472,95.551346 259.971436,81.725487 
	C259.729584,69.828766 253.223862,62.619629 241.569427,62.509457 
	C235.829529,62.455196 229.935120,64.606682 224.359833,66.495583 
	C220.929123,67.657906 217.969009,70.209236 214.439468,72.354568 
	C214.213654,70.440704 214.068253,69.143929 213.906586,67.849190 
	C213.205734,62.236549 212.894455,62.041641 207.346283,63.902267 
	C201.361038,65.909485 195.376007,67.918045 189.409225,69.979126 
	C188.191315,70.399834 187.054840,71.056320 185.880814,71.604111 
	C192.487564,73.200882 193.480988,77.388763 193.396988,82.837624 
	C193.186340,96.499222 193.174423,110.168770 193.400879,123.829865 
	C193.494675,129.487930 192.607132,134.082550 186.364914,135.807816 
	C186.285263,135.829819 186.354980,136.392258 186.354980,136.456390 
	C197.952560,136.456390 209.504166,136.456390 221.055771,136.456390 
	C215.261734,133.994049 214.770477,129.461716 214.837845,124.275429 
	C215.013123,110.779503 214.896515,97.279785 214.896332,83.781586 
	C214.896240,75.547318 216.858322,72.954521 224.939056,70.510872 
	C233.384888,67.956810 238.800430,71.745811 238.936096,80.503746 
	C239.065125,88.833984 238.965714,97.167763 238.966736,106.499969 
M30.086227,37.436558 
	C29.196751,38.149948 27.553528,38.843723 27.534376,39.579754 
	C27.342546,46.952087 27.417799,54.331367 27.417799,63.230400 
	C30.714817,57.209763 33.101234,52.206387 36.111382,47.611633 
	C37.760807,45.093910 40.180664,41.952862 42.749592,41.400063 
	C48.124004,40.243561 53.827293,40.615383 59.703003,40.345387 
	C59.703003,53.604385 59.703243,65.914490 59.702942,78.224594 
	C59.702568,93.545509 59.740139,108.866562 59.683514,124.187263 
	C59.658459,130.966263 58.373615,132.481155 51.843258,134.322464 
	C50.308849,134.755112 48.826126,135.371094 47.319626,135.902740 
	C47.434010,136.133560 47.548397,136.364395 47.662781,136.595215 
	C63.280876,136.595215 78.898964,136.595215 94.517059,136.595215 
	C93.975090,135.569901 93.317421,135.184738 92.607628,134.982834 
	C82.808189,132.195419 82.369164,131.640335 82.368065,121.678940 
	C82.365280,96.532661 82.367134,71.386383 82.367134,46.240105 
	C82.367134,44.480282 82.367134,42.720459 82.367134,41.074394 
	C99.468857,38.551769 102.184753,39.907841 109.576767,54.180874 
	C110.956177,56.844345 112.365623,59.492268 113.761208,62.147362 
	C113.990685,61.995380 114.220154,61.843399 114.449631,61.691418 
	C114.449631,53.720554 114.449631,45.749695 114.449631,37.430851 
	C86.230667,37.430851 58.610668,37.430851 30.086227,37.436558 
M178.903610,129.934860 
	C174.419617,128.705414 174.518997,124.975853 174.464600,121.492500 
	C174.274918,109.346428 174.456421,97.188873 174.001068,85.054276 
	C173.561951,73.352234 166.881012,65.573769 155.736237,63.239605 
	C145.701462,61.137928 135.825012,62.058029 126.449959,66.233658 
	C121.348633,68.505775 116.972847,71.787354 115.762161,77.859390 
	C114.564072,83.868271 116.880592,88.277786 122.063118,89.596848 
	C127.404770,90.956406 132.678986,87.580139 133.971481,81.792114 
	C134.586304,79.038864 134.774857,76.193329 135.279282,73.411865 
	C136.099899,68.886749 138.340500,65.557564 143.374130,65.471535 
	C148.161179,65.389717 151.584564,67.959312 152.217926,72.616013 
	C153.255844,80.247238 153.582275,87.975227 154.207474,95.646393 
	C149.154556,96.588303 145.212936,97.208534 141.325104,98.071144 
	C132.694061,99.986160 124.107765,102.115021 117.451584,108.512436 
	C108.767876,116.858566 110.385567,130.834137 121.051247,136.325272 
	C129.596863,140.724915 138.354614,140.749115 146.385956,134.602112 
	C148.959534,132.632339 151.325592,130.391449 153.821991,128.244171 
	C161.356400,141.434479 177.726669,142.837677 185.223099,130.556061 
	C183.188263,130.355820 181.457779,130.185532 178.903610,129.934860 
M285.178925,66.527756 
	C280.219574,69.252785 275.945679,72.580750 275.053864,78.664757 
	C274.211578,84.411179 276.858032,88.592117 281.903595,89.680679 
	C286.755524,90.727470 291.573242,87.943680 293.111206,82.846909 
	C293.968414,80.006203 294.373840,77.007622 294.759521,74.051048 
	C295.389130,69.223831 297.491943,65.835136 302.753479,65.463440 
	C307.557922,65.124031 311.232666,68.014656 312.021820,73.947304 
	C312.977661,81.132957 313.003937,88.442253 313.432953,95.706070 
	C308.722290,96.580643 304.786072,97.192612 300.905762,98.055946 
	C292.110443,100.012802 283.340210,102.142265 276.654846,108.817940 
	C268.200104,117.260445 270.203308,131.388580 280.960236,136.581467 
	C289.608765,140.756516 298.358459,140.658371 306.267731,134.294495 
	C308.718109,132.322906 311.045135,130.197998 313.706665,127.903633 
	C316.225220,136.271332 322.358246,139.050079 330.207001,138.890503 
	C336.219910,138.768265 341.309021,136.738266 344.613007,131.040390 
	C333.985748,128.147751 334.008148,128.147690 333.978729,116.994476 
	C333.951935,106.836006 334.231445,96.659592 333.725006,86.523613 
	C332.997589,71.965408 325.668335,64.404205 311.239075,62.603886 
	C302.482605,61.511349 294.001343,62.770908 285.178925,66.527756 
M370.686676,122.905441 
	C373.226593,129.049118 375.806976,135.176620 378.274048,141.349411 
	C378.800415,142.666412 379.551392,144.401031 379.110260,145.510391 
	C377.090332,150.590302 374.904358,155.634338 372.330566,160.452225 
	C370.847443,163.228455 368.409576,163.204239 366.239319,160.769760 
	C364.802429,159.157883 363.528503,157.352570 361.894592,155.974121 
	C358.102570,152.774948 353.804077,152.187592 349.340912,154.475082 
	C345.505341,156.440887 343.875549,159.850250 344.423981,163.993683 
	C345.108246,169.163483 348.822510,171.737457 353.524139,172.680756 
	C360.365509,174.053360 366.706085,172.532120 371.064056,166.894150 
	C374.487976,162.464569 377.775574,157.633804 379.790283,152.461807 
	C388.594055,129.861511 396.815979,107.035294 405.459595,84.371368 
	C408.306824,76.905876 408.917358,67.655777 418.949188,64.872238 
	C412.182007,64.872238 405.414795,64.872238 397.766571,64.872238 
	C406.362885,69.372490 406.551025,69.844772 403.492096,78.322609 
	C401.123505,84.887192 398.711609,91.436134 396.324127,97.993904 
	C394.160614,103.936554 392.003998,109.881729 389.501831,116.768478 
	C384.470734,103.783417 379.845001,91.868126 375.237732,79.945717 
	C371.660461,70.688736 371.689575,70.605850 379.172577,64.814331 
	C366.503693,64.814331 354.224182,64.814331 342.629761,64.814331 
	C345.160736,67.968063 348.565369,70.818398 350.178986,74.461914 
	C357.175537,90.260056 363.649261,106.289734 370.686676,122.905441 
M413.847107,123.424637 
	C412.641205,129.247681 414.410614,133.965363 419.422363,137.160782 
	C424.024048,140.094757 428.886993,140.033890 433.468750,137.083954 
	C438.112885,134.093857 439.822052,129.634354 439.055573,124.208138 
	C438.287140,118.767738 433.804718,114.381134 428.137024,113.488670 
	C422.008789,112.523689 417.106262,115.706985 413.847107,123.424637 
z"/>
<path fill="#F9F3E5" opacity="1.000000" stroke="none" 
	d="
M238.966736,105.999977 
	C238.965714,97.167763 239.065125,88.833984 238.936096,80.503746 
	C238.800430,71.745811 233.384888,67.956810 224.939056,70.510872 
	C216.858322,72.954521 214.896240,75.547318 214.896332,83.781586 
	C214.896515,97.279785 215.013123,110.779503 214.837845,124.275429 
	C214.770477,129.461716 215.261734,133.994049 221.055771,136.456390 
	C209.504166,136.456390 197.952560,136.456390 186.354980,136.456390 
	C186.354980,136.392258 186.285263,135.829819 186.364914,135.807816 
	C192.607132,134.082550 193.494675,129.487930 193.400879,123.829865 
	C193.174423,110.168770 193.186340,96.499222 193.396988,82.837624 
	C193.480988,77.388763 192.487564,73.200882 185.880814,71.604111 
	C187.054840,71.056320 188.191315,70.399834 189.409225,69.979126 
	C195.376007,67.918045 201.361038,65.909485 207.346283,63.902267 
	C212.894455,62.041641 213.205734,62.236549 213.906586,67.849190 
	C214.068253,69.143929 214.213654,70.440704 214.439468,72.354568 
	C217.969009,70.209236 220.929123,67.657906 224.359833,66.495583 
	C229.935120,64.606682 235.829529,62.455196 241.569427,62.509457 
	C253.223862,62.619629 259.729584,69.828766 259.971436,81.725487 
	C260.252472,95.551346 260.213715,109.386971 260.086487,123.216263 
	C260.034332,128.885208 260.342224,134.039246 266.969055,136.491882 
	C255.403976,136.491882 243.838898,136.491882 231.583954,136.491882 
	C232.604126,135.741318 233.183853,135.118027 233.899048,134.821518 
	C237.642548,133.269547 239.017731,130.381104 238.980850,126.497101 
	C238.917542,119.831947 238.965500,113.165733 238.966736,105.999977 
z"/>
<path fill="#F8F1E4" opacity="1.000000" stroke="none" 
	d="
M30.538450,37.433704 
	C58.610668,37.430851 86.230667,37.430851 114.449631,37.430851 
	C114.449631,45.749695 114.449631,53.720554 114.449631,61.691418 
	C114.220154,61.843399 113.990685,61.995380 113.761208,62.147362 
	C112.365623,59.492268 110.956177,56.844345 109.576767,54.180874 
	C102.184753,39.907841 99.468857,38.551769 82.367134,41.074394 
	C82.367134,42.720459 82.367134,44.480282 82.367134,46.240105 
	C82.367134,71.386383 82.365280,96.532661 82.368065,121.678940 
	C82.369164,131.640335 82.808189,132.195419 92.607628,134.982834 
	C93.317421,135.184738 93.975090,135.569901 94.517059,136.595215 
	C78.898964,136.595215 63.280876,136.595215 47.662781,136.595215 
	C47.548397,136.364395 47.434010,136.133560 47.319626,135.902740 
	C48.826126,135.371094 50.308849,134.755112 51.843258,134.322464 
	C58.373615,132.481155 59.658459,130.966263 59.683514,124.187263 
	C59.740139,108.866562 59.702568,93.545509 59.702942,78.224594 
	C59.703243,65.914490 59.703003,53.604385 59.703003,40.345387 
	C53.827293,40.615383 48.124004,40.243561 42.749592,41.400063 
	C40.180664,41.952862 37.760807,45.093910 36.111382,47.611633 
	C33.101234,52.206387 30.714817,57.209763 27.417799,63.230400 
	C27.417799,54.331367 27.342546,46.952087 27.534376,39.579754 
	C27.553528,38.843723 29.196751,38.149948 30.538450,37.433704 
z"/>
<path fill="#F9F2E5" opacity="1.000000" stroke="none" 
	d="
M179.315445,129.975037 
	C181.457779,130.185532 183.188263,130.355820 185.223099,130.556061 
	C177.726669,142.837677 161.356400,141.434479 153.821991,128.244171 
	C151.325592,130.391449 148.959534,132.632339 146.385956,134.602112 
	C138.354614,140.749115 129.596863,140.724915 121.051247,136.325272 
	C110.385567,130.834137 108.767876,116.858566 117.451584,108.512436 
	C124.107765,102.115021 132.694061,99.986160 141.325104,98.071144 
	C145.212936,97.208534 149.154556,96.588303 154.207474,95.646393 
	C153.582275,87.975227 153.255844,80.247238 152.217926,72.616013 
	C151.584564,67.959312 148.161179,65.389717 143.374130,65.471535 
	C138.340500,65.557564 136.099899,68.886749 135.279282,73.411865 
	C134.774857,76.193329 134.586304,79.038864 133.971481,81.792114 
	C132.678986,87.580139 127.404770,90.956406 122.063118,89.596848 
	C116.880592,88.277786 114.564072,83.868271 115.762161,77.859390 
	C116.972847,71.787354 121.348633,68.505775 126.449959,66.233658 
	C135.825012,62.058029 145.701462,61.137928 155.736237,63.239605 
	C166.881012,65.573769 173.561951,73.352234 174.001068,85.054276 
	C174.456421,97.188873 174.274918,109.346428 174.464600,121.492500 
	C174.518997,124.975853 174.419617,128.705414 179.315445,129.975037 
M139.323975,103.712646 
	C132.702789,108.767563 130.346283,115.675110 132.760681,122.951363 
	C134.267853,127.493530 138.216721,131.022415 142.405151,129.746826 
	C146.490662,128.502563 152.578568,125.791153 153.195938,122.781891 
	C154.748337,115.214912 153.709412,107.116310 153.709412,98.076118 
	C148.455734,100.038933 144.172836,101.639046 139.323975,103.712646 
z"/>
<path fill="#F9F2E4" opacity="1.000000" stroke="none" 
	d="
M285.515320,66.355545 
	C294.001343,62.770908 302.482605,61.511349 311.239075,62.603886 
	C325.668335,64.404205 332.997589,71.965408 333.725006,86.523613 
	C334.231445,96.659592 333.951935,106.836006 333.978729,116.994476 
	C334.008148,128.147690 333.985748,128.147751 344.613007,131.040390 
	C341.309021,136.738266 336.219910,138.768265 330.207001,138.890503 
	C322.358246,139.050079 316.225220,136.271332 313.706665,127.903633 
	C311.045135,130.197998 308.718109,132.322906 306.267731,134.294495 
	C298.358459,140.658371 289.608765,140.756516 280.960236,136.581467 
	C270.203308,131.388580 268.200104,117.260445 276.654846,108.817940 
	C283.340210,102.142265 292.110443,100.012802 300.905762,98.055946 
	C304.786072,97.192612 308.722290,96.580643 313.432953,95.706070 
	C313.003937,88.442253 312.977661,81.132957 312.021820,73.947304 
	C311.232666,68.014656 307.557922,65.124031 302.753479,65.463440 
	C297.491943,65.835136 295.389130,69.223831 294.759521,74.051048 
	C294.373840,77.007622 293.968414,80.006203 293.111206,82.846909 
	C291.573242,87.943680 286.755524,90.727470 281.903595,89.680679 
	C276.858032,88.592117 274.211578,84.411179 275.053864,78.664757 
	C275.945679,72.580750 280.219574,69.252785 285.515320,66.355545 
M312.696686,99.232529 
	C309.501343,99.957397 306.169098,100.321892 303.136200,101.474297 
	C293.810516,105.017784 290.004547,112.282425 292.012512,122.007751 
	C293.057495,127.068756 297.398163,130.372406 302.442200,129.945663 
	C308.262207,129.453247 313.078033,124.942337 313.079102,119.945091 
	C313.080505,113.315331 313.053680,106.685562 312.696686,99.232529 
z"/>
<path fill="#F6EFE2" opacity="1.000000" stroke="none" 
	d="
M370.499878,122.570328 
	C363.649261,106.289734 357.175537,90.260056 350.178986,74.461914 
	C348.565369,70.818398 345.160736,67.968063 342.629761,64.814331 
	C354.224182,64.814331 366.503693,64.814331 379.172577,64.814331 
	C371.689575,70.605850 371.660461,70.688736 375.237732,79.945717 
	C379.845001,91.868126 384.470734,103.783417 389.501831,116.768478 
	C392.003998,109.881729 394.160614,103.936554 396.324127,97.993904 
	C398.711609,91.436134 401.123505,84.887192 403.492096,78.322609 
	C406.551025,69.844772 406.362885,69.372490 397.766571,64.872238 
	C405.414795,64.872238 412.182007,64.872238 418.949188,64.872238 
	C408.917358,67.655777 408.306824,76.905876 405.459595,84.371368 
	C396.815979,107.035294 388.594055,129.861511 379.790283,152.461807 
	C377.775574,157.633804 374.487976,162.464569 371.064056,166.894150 
	C366.706085,172.532120 360.365509,174.053360 353.524139,172.680756 
	C348.822510,171.737457 345.108246,169.163483 344.423981,163.993683 
	C343.875549,159.850250 345.505341,156.440887 349.340912,154.475082 
	C353.804077,152.187592 358.102570,152.774948 361.894592,155.974121 
	C363.528503,157.352570 364.802429,159.157883 366.239319,160.769760 
	C368.409576,163.204239 370.847443,163.228455 372.330566,160.452225 
	C374.904358,155.634338 377.090332,150.590302 379.110260,145.510391 
	C379.551392,144.401031 378.800415,142.666412 378.274048,141.349411 
	C375.806976,135.176620 373.226593,129.049118 370.499878,122.570328 
z"/>
<path fill="#F8F2E4" opacity="1.000000" stroke="none" 
	d="
M413.923401,123.046463 
	C417.106262,115.706985 422.008789,112.523689 428.137024,113.488670 
	C433.804718,114.381134 438.287140,118.767738 439.055573,124.208138 
	C439.822052,129.634354 438.112885,134.093857 433.468750,137.083954 
	C428.886993,140.033890 424.024048,140.094757 419.422363,137.160782 
	C414.410614,133.965363 412.641205,129.247681 413.923401,123.046463 
z"/>
<path fill="#282A28" opacity="1.000000" stroke="none" 
	d="
M139.606964,103.475906 
	C144.172836,101.639046 148.455734,100.038933 153.709412,98.076118 
	C153.709412,107.116310 154.748337,115.214912 153.195938,122.781891 
	C152.578568,125.791153 146.490662,128.502563 142.405151,129.746826 
	C138.216721,131.022415 134.267853,127.493530 132.760681,122.951363 
	C130.346283,115.675110 132.702789,108.767563 139.606964,103.475906 
z"/>
<path fill="#252725" opacity="1.000000" stroke="none" 
	d="
M312.867828,99.644165 
	C313.053680,106.685562 313.080505,113.315331 313.079102,119.945091 
	C313.078033,124.942337 308.262207,129.453247 302.442200,129.945663 
	C297.398163,130.372406 293.057495,127.068756 292.012512,122.007751 
	C290.004547,112.282425 293.810516,105.017784 303.136200,101.474297 
	C306.169098,100.321892 309.501343,99.957397 312.867828,99.644165 
z"/>
</svg>